<svg width="14.000000" height="13.000000" viewBox="0 0 14 13" fill="none" xmlns="http://www.w3.org/2000/svg" xmlns:xlink="http://www.w3.org/1999/xlink">
	<desc>
			Created with Pixso.
	</desc>
	<defs/>
	<path d="M13.58 2.22C13.36 1.7 13.03 1.24 12.63 0.85C12.23 0.46 11.75 0.14 11.23 -0.07C10.69 -0.29 10.11 -0.41 9.52 -0.41C8.7 -0.41 7.9 -0.18 7.2 0.24C7.04 0.34 6.88 0.45 6.73 0.57C6.58 0.45 6.42 0.34 6.25 0.24C5.56 -0.18 4.76 -0.41 3.93 -0.41C3.34 -0.41 2.77 -0.29 2.23 -0.07C1.7 0.15 1.23 0.46 0.83 0.85C0.42 1.24 0.1 1.7 -0.12 2.22C-0.35 2.75 -0.47 3.32 -0.47 3.9C-0.47 4.45 -0.36 5.03 -0.13 5.61C0.06 6.1 0.33 6.61 0.67 7.12C1.22 7.93 1.97 8.77 2.9 9.62C4.45 11.04 5.98 12.02 6.05 12.06L6.44 12.31C6.62 12.42 6.84 12.42 7.02 12.31L7.41 12.06C7.48 12.02 9.01 11.04 10.55 9.62C11.49 8.77 12.24 7.93 12.79 7.12C13.13 6.61 13.4 6.1 13.59 5.61C13.82 5.03 13.93 4.45 13.93 3.9C13.93 3.32 13.81 2.75 13.58 2.22Z" fill="#FF8585" fill-opacity="1.000000" fill-rule="nonzero"/>
</svg>
