<svg width="14.000000" height="12.000000" viewBox="0 0 14 12" fill="black" xmlns="http://www.w3.org/2000/svg" xmlns:xlink="http://www.w3.org/1999/xlink">
	<defs/>
	<path id="Vector" d="M6.75 0.91Q6.53 0.74 6.3 0.6C5.65 0.2 4.9 0 4.13 0C3.57 0 3.03 0.1 2.52 0.31C2.03 0.51 1.59 0.8 1.21 1.17C0.83 1.54 0.53 1.97 0.32 2.45C0.11 2.95 0 3.49 0 4.03C0 4.55 0.1 5.09 0.31 5.64C0.49 6.09 0.74 6.57 1.07 7.05C1.58 7.81 2.28 8.6 3.16 9.4C4.61 10.73 6.04 11.64 6.11 11.68L6.48 11.92C6.64 12.02 6.85 12.02 7.01 11.92L7.38 11.68C7.45 11.64 8.88 10.73 10.33 9.4C11.21 8.6 11.91 7.81 12.42 7.05C12.75 6.57 13 6.09 13.18 5.64C13.39 5.09 13.5 4.55 13.5 4.03C13.5 3.49 13.39 2.95 13.17 2.45C12.96 1.97 12.66 1.54 12.28 1.17C11.9 0.8 11.46 0.51 10.97 0.31C10.46 0.1 9.92 -0.01 9.37 0C8.6 0 7.84 0.2 7.19 0.6C7.03 0.69 6.89 0.8 6.75 0.91ZM11.14 1.53Q11.38 1.69 11.58 1.89L11.58 1.89Q11.81 2.11 11.99 2.38Q12.14 2.6 12.25 2.85Q12.38 3.15 12.44 3.46Q12.5 3.74 12.5 4.03Q12.5 4.63 12.24 5.28Q12.02 5.85 11.6 6.49Q10.89 7.53 9.66 8.66Q8.79 9.46 7.75 10.22Q7.22 10.6 6.85 10.84L6.74 10.9L6.63 10.83Q6.57 10.79 6.38 10.67Q6.07 10.46 5.74 10.22Q4.7 9.46 3.83 8.66Q2.6 7.53 1.89 6.49Q1.47 5.86 1.25 5.28Q1 4.63 1 4.03Q1 3.73 1.05 3.45Q1.11 3.14 1.24 2.85Q1.35 2.6 1.5 2.38Q1.67 2.12 1.91 1.89Q2.11 1.69 2.35 1.53Q2.61 1.36 2.91 1.23Q3.13 1.14 3.37 1.08Q3.74 1 4.13 1Q4.6 1 5.04 1.13Q5.43 1.24 5.78 1.46Q5.96 1.56 6.12 1.69L6.75 2.2L7.37 1.69Q7.53 1.56 7.71 1.46Q8.06 1.24 8.44 1.13Q8.88 1 9.37 1Q9.68 0.99 9.98 1.05Q10.29 1.11 10.59 1.23Q10.88 1.36 11.14 1.53Z" fill="currentColor" fill-opacity="1.000000" fill-rule="evenodd"/>
</svg>
