<svg width="20.000000" height="20.000000" viewBox="0 0 22 20" fill="none" xmlns="http://www.w3.org/2000/svg" xmlns:xlink="http://www.w3.org/1999/xlink">
	<defs>
		<linearGradient x1="6.500052" y1="19.000019" x2="10.501008" y2="-2.998996" id="paint_linear_2_60_0" gradientUnits="userSpaceOnUse">
			<stop stop-color="#FFB000"/>
			<stop offset="1.000000" stop-color="#FFCA00" stop-opacity="0.000000"/>
		</linearGradient>
	</defs>
	<path id="Звезда 1" d="M9.54 -0.08L7.69 5.63C7.55 6.04 7.17 6.32 6.74 6.32L0.73 6.32C-0.24 6.32 -0.64 7.56 0.15 8.13L5 11.66C5.35 11.92 5.5 12.37 5.37 12.78L3.51 18.49C3.21 19.41 4.27 20.18 5.05 19.61L9.91 16.08C10.26 15.82 10.73 15.82 11.08 16.08L15.94 19.61C16.72 20.18 17.78 19.41 17.48 18.49L15.62 12.78C15.49 12.37 15.64 11.92 15.99 11.66L20.84 8.13C21.63 7.56 21.23 6.32 20.26 6.32L14.25 6.32C13.82 6.32 13.44 6.04 13.3 5.63L11.45 -0.08C11.15 -1 9.84 -1 9.54 -0.08Z" fill="url(#paint_linear_2_60_0)" fill-opacity="1.000000" fill-rule="evenodd"/>
</svg>
