<svg width="11.000000" height="11.000000" viewBox="0 0 11 11" fill="none" xmlns="http://www.w3.org/2000/svg" xmlns:xlink="http://www.w3.org/1999/xlink">
	<defs>
		<filter id="filter_60_204_dd" x="-0.333496" y="0.329834" width="10.669769" height="10.513245" filterUnits="userSpaceOnUse" color-interpolation-filters="sRGB">
			<feFlood flood-opacity="0" result="BackgroundImageFix"/>
			<feColorMatrix in="SourceAlpha" type="matrix" values="0 0 0 0 0 0 0 0 0 0 0 0 0 0 0 0 0 0 127 0" result="hardAlpha"/>
			<feOffset dx="0" dy="2"/>
			<feGaussianBlur stdDeviation="0"/>
			<feComposite in2="hardAlpha" operator="out" k2="-1" k3="1"/>
			<feColorMatrix type="matrix" values="0 0 0 0 0 0 0 0 0 0 0 0 0 0 0 0 0 0 0.1 0"/>
			<feBlend mode="normal" in2="BackgroundImageFix" result="effect_dropShadow_1"/>
			<feBlend mode="normal" in="SourceGraphic" in2="effect_dropShadow_1" result="shape"/>
		</filter>
		<clipPath id="clip60_202">
			<rect id="bi:check-lg" width="10.666666" height="10.666666" transform="translate(-0.333313 -0.333313)" fill="white" fill-opacity="0"/>
		</clipPath>
	</defs>
	<rect id="bi:check-lg" width="10.666666" height="10.666666" transform="translate(-0.333313 -0.333313)" fill="#FFFFFF" fill-opacity="0"/>
	<g clip-path="url(#clip60_202)">
		<g filter="url(#filter_60_204_dd)">
			<path id="Vector" d="M8.65 0.62C8.83 0.43 9.08 0.33 9.34 0.32C9.6 0.32 9.85 0.42 10.04 0.61C10.22 0.79 10.33 1.03 10.33 1.29C10.33 1.55 10.24 1.8 10.05 1.99L4.83 8.52C4.74 8.62 4.63 8.7 4.51 8.75C4.39 8.81 4.26 8.84 4.13 8.84C3.99 8.84 3.86 8.82 3.74 8.77C3.62 8.72 3.51 8.64 3.41 8.55L-0.05 5.09C-0.24 4.9 -0.34 4.65 -0.34 4.39C-0.34 4.13 -0.23 3.88 -0.05 3.7C0.13 3.51 0.38 3.41 0.64 3.41C0.9 3.41 1.15 3.51 1.34 3.7L4.08 6.44L8.63 0.65C8.63 0.64 8.64 0.63 8.65 0.62L8.65 0.62Z" fill="#FFFFFF" fill-opacity="1.000000" fill-rule="nonzero"/>
		</g>
	</g>
</svg>
