<svg width="40.000000" height="40.000000" viewBox="0 0 40 40" fill="none" xmlns="http://www.w3.org/2000/svg" xmlns:xlink="http://www.w3.org/1999/xlink">
	<desc>
			Created with Pixso.
	</desc>
	<defs>
		<clipPath id="clip2_33">
			<rect id="game-controller-gamepad-svgrepo-com" width="30.000000" height="30.000000" transform="translate(5.000000 5.000000)" fill="white" fill-opacity="0"/>
		</clipPath>
		<linearGradient x1="32.499969" y1="4.499943" x2="9.999983" y2="34.999969" id="paint_linear_2_32_0" gradientUnits="userSpaceOnUse">
			<stop offset="0.659754" stop-color="#FCB858"/>
			<stop offset="1.000000" stop-color="#FE6D48"/>
		</linearGradient>
	</defs>
	<circle id="Эллипс 1" cx="19.999969" cy="19.999939" r="20.000000" fill="url(#paint_linear_2_32_0)" fill-opacity="1.000000"/>
	<g clip-path="url(#clip2_33)">
		<path id="path" d="M12.95 9.65L12.85 9.23C12.8 9.05 12.65 8.9 12.45 8.84C11.88 8.7 11.29 8.62 10.68 8.62C10.08 8.62 9.49 8.7 8.92 8.84C8.72 8.9 8.57 9.05 8.52 9.23L8.42 9.65L12.95 9.65Z" fill="#707487" fill-opacity="1.000000" fill-rule="nonzero"/>
		<path id="path" d="M7.06 13.27L14.31 13.27L13.28 9.75C13.23 9.57 13.07 9.42 12.86 9.37C12.16 9.22 11.44 9.13 10.68 9.13C9.93 9.13 9.21 9.22 8.51 9.37C8.3 9.42 8.14 9.57 8.09 9.75L7.06 13.27Z" fill="#D7DEED" fill-opacity="1.000000" fill-rule="nonzero"/>
		<path id="path" d="M31.57 9.65L31.47 9.23C31.42 9.05 31.27 8.9 31.07 8.84C30.5 8.7 29.91 8.62 29.31 8.62C28.7 8.62 28.11 8.7 27.54 8.84C27.34 8.9 27.19 9.05 27.14 9.23L27.04 9.65L31.57 9.65Z" fill="#707487" fill-opacity="1.000000" fill-rule="nonzero"/>
		<path id="path" d="M25.68 13.27L32.93 13.27L31.9 9.75C31.85 9.57 31.69 9.42 31.48 9.37C30.78 9.22 30.06 9.13 29.31 9.13C28.55 9.13 27.83 9.22 27.13 9.37C26.92 9.42 26.76 9.57 26.71 9.75L25.68 13.27Z" fill="#D7DEED" fill-opacity="1.000000" fill-rule="nonzero"/>
		<path id="path" d="M26.72 11.72L13.27 11.72L5 16.37L5 28.18C5 29.94 6.43 31.37 8.19 31.37C9.4 31.37 10.51 30.69 11.05 29.61L15.05 21.6C15.23 21.25 15.59 21.03 15.98 21.03L24.01 21.03C24.4 21.03 24.76 21.25 24.94 21.6L28.94 29.61C29.48 30.69 30.59 31.37 31.8 31.37C33.56 31.37 35 29.94 35 28.18L35 16.37L26.72 11.72Z" fill="#D7DEED" fill-opacity="1.000000" fill-rule="nonzero"/>
		<circle id="circle" cx="10.689629" cy="16.379272" r="5.689618" fill="#E4EAF6" fill-opacity="1.000000"/>
		<circle id="circle" cx="29.310326" cy="16.379272" r="5.689618" fill="#E4EAF6" fill-opacity="1.000000"/>
		<path id="path" d="M14.31 14.82L12.24 14.82L12.24 12.75C12.24 12.47 12 12.24 11.72 12.24L9.65 12.24C9.36 12.24 9.13 12.47 9.13 12.75L9.13 14.82L7.06 14.82C6.78 14.82 6.55 15.05 6.55 15.34L6.55 17.41C6.55 17.69 6.78 17.93 7.06 17.93L9.13 17.93L9.13 20C9.13 20.28 9.36 20.51 9.65 20.51L11.72 20.51C12 20.51 12.24 20.28 12.24 20L12.24 17.93L14.31 17.93C14.59 17.93 14.82 17.69 14.82 17.41L14.82 15.34C14.82 15.05 14.59 14.82 14.31 14.82Z" fill="#D7DEED" fill-opacity="1.000000" fill-rule="nonzero"/>
		<path id="path" d="M32.93 14.82L30.86 14.82L30.86 12.75C30.86 12.47 30.63 12.24 30.34 12.24L28.27 12.24C27.99 12.24 27.75 12.47 27.75 12.75L27.75 14.82L25.68 14.82C25.4 14.82 25.17 15.05 25.17 15.34L25.17 17.41C25.17 17.69 25.4 17.93 25.68 17.93L27.75 17.93L27.75 20C27.75 20.28 27.99 20.51 28.27 20.51L30.34 20.51C30.63 20.51 30.86 20.28 30.86 20L30.86 17.93L32.93 17.93C33.21 17.93 33.44 17.69 33.44 17.41L33.44 15.34C33.44 15.05 33.21 14.82 32.93 14.82Z" fill="#D7DEED" fill-opacity="1.000000" fill-rule="nonzero"/>
		<path id="path" d="M9.49 17.15L8.46 17.15C8.26 17.15 8.1 16.99 8.1 16.79L8.1 15.96C8.1 15.76 8.26 15.6 8.46 15.6L9.49 15.6C9.59 15.6 9.69 15.64 9.76 15.72L10.17 16.21C10.26 16.3 10.26 16.45 10.17 16.54L9.76 17.03C9.69 17.1 9.59 17.15 9.49 17.15Z" fill="#707487" fill-opacity="1.000000" fill-rule="nonzero"/>
		<path id="path" d="M12.04 15.6L13.06 15.6C13.26 15.6 13.42 15.76 13.42 15.96L13.42 16.79C13.42 16.99 13.26 17.15 13.06 17.15L12.04 17.15C11.93 17.15 11.83 17.1 11.76 17.03L11.35 16.54C11.26 16.45 11.26 16.3 11.35 16.21L11.76 15.72C11.83 15.64 11.93 15.6 12.04 15.6Z" fill="#707487" fill-opacity="1.000000" fill-rule="nonzero"/>
		<path id="path" d="M11.54 17.65L11.54 18.68C11.54 18.88 11.38 19.04 11.18 19.04L10.34 19.04C10.15 19.04 9.98 18.88 9.98 18.68L9.98 17.65C9.98 17.54 10.03 17.45 10.11 17.38L10.59 16.96C10.69 16.88 10.83 16.88 10.93 16.96L11.41 17.38C11.49 17.45 11.54 17.54 11.54 17.65Z" fill="#707487" fill-opacity="1.000000" fill-rule="nonzero"/>
		<path id="path" d="M9.98 15.1L9.98 14.07C9.98 13.87 10.15 13.71 10.34 13.71L11.18 13.71C11.38 13.71 11.54 13.87 11.54 14.07L11.54 15.1C11.54 15.2 11.49 15.3 11.41 15.37L10.93 15.79C10.83 15.87 10.69 15.87 10.59 15.79L10.11 15.37C10.03 15.3 9.98 15.2 9.98 15.1Z" fill="#707487" fill-opacity="1.000000" fill-rule="nonzero"/>
		<circle id="circle" cx="26.724121" cy="16.379303" r="1.034471" fill="#FF82AF" fill-opacity="1.000000"/>
		<circle id="circle" cx="19.999977" cy="15.862091" r="1.551735" fill="#C7CFE2" fill-opacity="1.000000"/>
		<circle id="circle" cx="31.896484" cy="16.379303" r="1.034471" fill="#FF6464" fill-opacity="1.000000"/>
		<circle id="circle" cx="29.310326" cy="18.965515" r="1.034471" fill="#82B9FF" fill-opacity="1.000000"/>
		<circle id="circle" cx="29.310326" cy="13.793152" r="1.034471" fill="#00DCC8" fill-opacity="1.000000"/>
		<path id="path" d="M18.44 19.48L17.41 19.48C17.12 19.48 16.89 19.25 16.89 18.96C16.89 18.67 17.12 18.44 17.41 18.44L18.44 18.44C18.73 18.44 18.96 18.67 18.96 18.96C18.96 19.25 18.73 19.48 18.44 19.48Z" fill="#707487" fill-opacity="1.000000" fill-rule="nonzero"/>
		<path id="path" d="M22.99 19.12L21.35 19.53C21.19 19.57 21.03 19.44 21.03 19.28L21.03 18.65C21.03 18.48 21.19 18.35 21.35 18.39L22.99 18.8C23.15 18.84 23.15 19.08 22.99 19.12Z" fill="#707487" fill-opacity="1.000000" fill-rule="nonzero"/>
	</g>
</svg>
